/* XPM */
static char *f3f48fb73e104e64c4d82e545718d41cHuoyZQyz0GrNUdXN[] = {
/* columns rows colors chars-per-pixel */
"16 16 7 1 ",
"  c None",
". c #281813",
"X c #077D53",
"o c #77CC2A",
"O c #FFC41F",
"+ c #B6A696",
"@ c #F2F1F0",
/* pixels */
"                ",
"                ",
"     oooooo     ",
"   XooO@@OooX   ",
"   oooooooooo   ",
"  oo@@@oo@@@oo  ",
"  o@..@oo@..@o  ",
"  o@..@oo@..@o  ",
"  oooooooooooo  ",
"ooo.+@@@@@@+.ooo",
"Xoo..@@@@@@..ooX",
" XXooooooooooXX ",
"  oooooooooooo  ",
" ooooXXXXXXoooo ",
"XoooX      XoooX",
"ooo          ooo"
};
