/* XPM */
static char *_235fb4c4a994dbff6ef7bf68fe43f8dJ0FawM7Ue9SWP1ab[] = {
/* columns rows colors chars-per-pixel */
"16 16 22 1 ",
"  c #EEEEEE",
". c #EFEFEF",
"X c #FBFBFB",
"o c #FDFDFD",
"O c gray98",
"+ c gray99",
"@ c gray94",
"# c gray93",
"$ c #ECECEC",
"% c #F1F1F1",
"& c #F3F3F3",
"* c gray92",
"= c white",
"- c #F4F4F4",
"; c #F9F9F9",
": c gray96",
"> c #FEFEFE",
", c gray95",
"< c #E9E9E9",
"1 c gray97",
"2 c #F6F6F6",
"3 c #F8F8F8",
/* pixels */
" .XooooooooooO..",
"  + @....@.@#+..",
" .+$.    %&.*+..",
"..+*  ..%==-*+..",
"  +*   .%==-*+..",
"  +$.&&--&&.*+  ",
"  +$%o;o==& *X..",
"  +$;:.>=oX%$+ .",
". + +.O==,%+++  ",
"  +*#@==X .$<+  ",
"  +$.&==1 ..*+..",
".#,#.1>:>. .*+..",
"..:22+2 +1 .*+..",
". -:2:  ,=@.$+ .",
"..;$.    33.$+ .",
". O*.     O@*;.."
};
