/* XPM */
static char *f366c2e0dbd24c88b6e08efdccf1924adR2XiaroVPZHnpFp[] = {
/* columns rows colors chars-per-pixel */
"16 16 60 1 ",
"  c #160C1E",
". c #190D1F",
"X c #1A0E22",
"o c #1B0F23",
"O c #180D20",
"+ c #191123",
"@ c #211226",
"# c #210F20",
"$ c #1E1025",
"% c #2A172F",
"& c #1F1226",
"* c #181A2F",
"= c #241228",
"- c #170D1F",
"; c #190E21",
": c #211122",
"> c #241329",
", c #1B0F22",
"< c #1A0E1F",
"1 c #161122",
"2 c #1F1126",
"3 c #231329",
"4 c #190E20",
"5 c #1A0D1F",
"6 c #1C0F22",
"7 c #261329",
"8 c #211227",
"9 c #281429",
"0 c #19142A",
"q c #170C1E",
"w c #170D1E",
"e c #180E1F",
"r c #1A0E21",
"t c #1C1022",
"y c #1F1025",
"u c #1A1E34",
"i c #1A0F21",
"p c #1C253A",
"a c #1B0E20",
"s c #200F20",
"d c #161023",
"f c #1D1023",
"g c #180D1F",
"h c #160F23",
"j c #170E21",
"k c #211021",
"l c #2C1425",
"z c #25142B",
"x c #160E21",
"c c #1D0F21",
"v c #271122",
"b c #1C1023",
"n c #2C1427",
"m c #361728",
"M c #301A34",
"N c #231327",
"B c #1F1021",
"V c #18253E",
"C c #181023",
"Z c #201227",
/* pixels */
"   .     Xo  O +",
"  @# O$    % O&*",
"=-   -; o:  =-; ",
" o ; o>;   O o>;",
", <$ O 1,  $, .2",
"3   4 5o3  O  +*",
" .; 67 8 9 0 O; ",
" - q 4;wO- qOe q",
"- -O- rty  ;  ;>",
";eu   ip-w  ;as ",
"><.-d efOghj>kl-",
"w,z  xo w, -w,zw",
"cv-  ;b       - ",
"nm; M    o;  o; ",
" O-N, BVC -  O- ",
"oZ$w3  -o-$  Z$;"
};
