/* XPM */
static char *_eb4063157e14cdba09da261c13abb53oFrGnBnv1hI0T5SG[] = {
/* columns rows colors chars-per-pixel */
"16 16 119 2 ",
"   c None",
".  c black",
"X  c #070505",
"o  c #0F0B09",
"O  c #0F0B0C",
"+  c #110C0A",
"@  c #130D0B",
"#  c #120D0D",
"$  c #150F0F",
"%  c #161011",
"&  c #171111",
"*  c #1A1313",
"=  c #1D1613",
"-  c #1F1616",
";  c #1F1A18",
":  c #201A18",
">  c #251A1B",
",  c #271C1C",
"<  c #281D1D",
"1  c #2A1E1F",
"2  c #2E211F",
"3  c #34241D",
"4  c #2E2122",
"5  c #2F2122",
"6  c #302322",
"7  c #312322",
"8  c #302323",
"9  c #352623",
"0  c #312424",
"q  c #322424",
"w  c #332424",
"e  c #332524",
"r  c #332525",
"t  c #342625",
"y  c #352625",
"u  c #362725",
"i  c #352727",
"p  c #362726",
"a  c #372827",
"s  c #3C2A23",
"d  c #392827",
"f  c #3C2B26",
"g  c #3F2C26",
"h  c #392928",
"j  c #3A2928",
"k  c #3E2D2A",
"l  c #3F2D2A",
"z  c #3E2D2B",
"x  c #402D27",
"c  c #442F2B",
"v  c #47312A",
"b  c #43312E",
"n  c #4D3529",
"m  c #4B352F",
"M  c #50372C",
"N  c #4C3530",
"B  c #493C38",
"V  c #4D3F39",
"C  c #4F3E39",
"Z  c #503831",
"A  c #513932",
"S  c #523932",
"D  c #523A33",
"F  c #563C31",
"G  c #533B35",
"H  c #583D32",
"J  c #5E4135",
"K  c #624439",
"L  c #66473C",
"P  c #65483D",
"I  c #68483C",
"U  c #6A4A3D",
"Y  c #6E4C3F",
"T  c #564441",
"R  c #5D4944",
"E  c #61524A",
"W  c #6E534A",
"Q  c #6B584F",
"!  c #765140",
"~  c #745448",
"^  c #75584D",
"/  c #77594E",
"(  c #685750",
")  c #6C5850",
"_  c #705B55",
"`  c #725D56",
"'  c #7F5F51",
"]  c #77615B",
"[  c #835C4B",
"{  c #896556",
"}  c #83685C",
"|  c #876C5F",
" . c #9B6B54",
".. c #956F5E",
"X. c #986F5D",
"o. c #A37159",
"O. c #A3725B",
"+. c #A4725A",
"@. c #A7745C",
"#. c #A9765E",
"$. c #816961",
"%. c #836960",
"&. c #846A61",
"*. c #876C61",
"=. c #8B6F61",
"-. c #967160",
";. c #977161",
":. c #937467",
">. c #9B7462",
",. c #9B7A6C",
"<. c #957C71",
"1. c #A17762",
"2. c #A57965",
"3. c #A77B66",
"4. c #AA7961",
"5. c #A48679",
"6. c #AF8C7C",
"7. c #B48C79",
"8. c #BD9583",
/* pixels */
"                                ",
"                                ",
"          ; Q Q C               ",
"        B <.4.>.,.| E           ",
"    : C &.-.;.7.O.O.@.8.        ",
"    6.O...2.$.$.5.=.X.#.}       ",
"  =.2.^ ..:.5 5 c I T _ [ n     ",
"= 1.A j ~ ) < t s S G G ^  ..   ",
"+ c t R { ! M M m 7 x F m P !   ",
"X 1 b ' d U d z w w _ k t x A @ ",
"  + t 7 * > t t R ] a W 0 5 %   ",
"    * t t 0 j t L w 2 J 5 >     ",
"      % 7 7 0 7 H @ 3 m %       ",
"        X # : 7 k K g $         ",
"                                ",
"                                "
};
