/* XPM */
static char *b6d074d803344256d21ddf7d6955842eX5xJAs353qD3neqL[] = {
/* columns rows colors chars-per-pixel */
"16 16 8 1 ",
"  c None",
". c #281813",
"X c #725F65",
"o c #9E1328",
"O c #FF4646",
"+ c #20A3F8",
"@ c #B6A696",
"# c #F2F1F0",
/* pixels */
"                ",
"       @@       ",
"       ##       ",
"      @##@      ",
"   @ o@##@o @   ",
"   X OO..OO X   ",
"   X O..+.O X   ",
"   ##o....o##   ",
"  O##OoXXoO##O  ",
" ooXXO@##@OXXoo ",
"OOO##oX@@Xo##OOO",
"oooooO@##@Oooooo",
"   OOo@##@oOO   ",
"   oooXXXXooo   ",
"   X@@X  X@@X   ",
"                "
};
